<svg xmlns="http://www.w3.org/2000/svg" width="701.333" height="701.333" preserveAspectRatio="xMidYMid meet" version="1.0" viewBox="0 0 526 526"><metadata>Created by potrace 1.14, written by Peter Selinger 2001-2017</metadata><g fill="#000" stroke="none"><path d="M1999 4897 c-37 -25 -99 -101 -130 -161 -11 -21 -49 -65 -84 -98 -71 -66 -105 -135 -105 -211 0 -23 -5 -59 -11 -81 -15 -54 -5 -86 26 -86 37 0 133 56 191 112 44 43 58 50 107 57 35 5 71 18 94 34 99 69 137 -3 57 -106 -27 -34 -48 -50 -85 -62 -52 -18 -87 -53 -113 -116 -12 -30 -12 -39 1 -74 26 -70 27 -101 3 -140 -22 -36 -30 -39 -115 -50 -27 -4 -67 -16 -88 -28 -39 -22 -48 -42 -62 -139 -3 -25 -16 -61 -28 -80 l-23 -33 -130 -5 c-102 -4 -136 -9 -157 -23 -39 -26 -115 -132 -128 -179 -17 -65 -13 -176 10 -247 57 -176 44 -219 -131 -426 -27 -33 -64 -89 -82 -125 -28 -59 -31 -74 -31 -160 0 -108 6 -121 106 -247 70 -88 96 -149 81 -192 -14 -39 -76 -131 -138 -202 -27 -31 -89 -105 -139 -165 -107 -130 -456 -484 -476 -484 -8 0 -33 9 -54 20 -52 27 -106 35 -143 22 -27 -9 -35 -6 -88 34 -67 50 -86 54 -108 22 -37 -53 -3 -151 59 -171 43 -14 55 -26 55 -56 1 -37 36 -111 71 -147 26 -27 28 -34 19 -58 -12 -33 -13 -136 -1 -155 6 -9 18 -11 35 -7 31 8 33 -2 11 -64 -8 -24 -16 -60 -17 -80 -2 -63 19 -76 66 -39 l26 20 0 -28 c0 -56 29 -133 55 -145 72 -33 85 21 114 489 3 56 11 106 16 111 6 5 42 20 80 32 39 12 124 45 190 72 66 27 140 58 165 68 25 11 115 48 200 84 151 64 200 78 200 55 0 -6 -7 -36 -16 -67 -23 -79 -15 -184 17 -218 31 -34 93 -60 213 -90 54 -14 115 -34 136 -44 46 -23 112 -96 140 -156 27 -54 168 -207 213 -229 36 -18 154 -34 207 -28 19 2 67 8 106 14 l71 11 74 -39 c41 -22 90 -50 110 -62 56 -33 107 -13 211 83 103 96 171 131 253 131 67 -1 108 -18 169 -72 53 -48 119 -76 159 -68 151 30 259 93 273 159 9 43 31 84 69 132 31 37 54 51 145 85 51 20 110 77 136 134 19 41 24 67 24 141 0 114 19 173 68 214 20 17 41 30 46 30 5 0 59 -29 120 -64 61 -35 207 -112 324 -171 117 -59 216 -114 221 -123 5 -10 12 -52 16 -94 6 -69 4 -80 -15 -106 -14 -18 -20 -40 -18 -58 3 -25 8 -29 37 -32 l33 -3 -6 -47 c-4 -26 -9 -60 -12 -77 -3 -17 1 -38 9 -49 11 -15 17 -17 35 -7 29 15 47 53 62 126 7 36 25 80 46 110 22 34 35 67 40 103 5 41 12 57 30 69 28 18 32 64 9 83 -24 20 -18 44 23 93 20 25 55 79 76 119 43 80 44 118 6 138 -21 11 -30 5 -92 -73 -20 -25 -39 -36 -66 -41 -21 -3 -55 -17 -75 -31 -21 -13 -43 -22 -49 -19 -18 8 -149 168 -225 273 -34 47 -70 97 -80 111 -27 38 -162 267 -200 339 -28 54 -33 76 -33 130 0 116 19 241 40 271 14 20 22 52 26 112 6 74 4 90 -16 134 -12 27 -35 92 -52 144 -28 89 -29 102 -24 205 4 61 9 134 12 164 9 85 -7 122 -88 199 -116 110 -139 153 -164 306 -27 167 -62 208 -206 244 -42 11 -90 29 -106 41 -17 11 -48 56 -71 100 -49 95 -74 117 -144 126 -98 13 -124 23 -147 60 -29 47 -47 55 -128 55 -84 0 -96 10 -141 126 -18 44 -41 95 -51 111 -41 68 -207 183 -263 183 -14 0 -55 -11 -91 -25 -73 -27 -142 -32 -170 -12 -10 7 -36 51 -59 97 -23 46 -53 92 -67 102 -17 12 -57 22 -120 28 -132 14 -129 13 -206 75 -80 63 -118 70 -175 32z" transform="translate(0.000000,526.000000) scale(0.100000,-0.100000)"/></g></svg>